<?xml version="1.0" encoding="UTF-8"?>
<svg width="32px" height="32px" viewBox="0 0 32 32" version="1.1" xmlns="http://www.w3.org/2000/svg" xmlns:xlink="http://www.w3.org/1999/xlink">
    <title>Group</title>
    <defs>
        <linearGradient x1="112.953817%" y1="-20.5564011%" x2="39.0673032%" y2="54.0632181%" id="linearGradient-1">
            <stop stop-color="#E5E0E0" offset="0%"></stop>
            <stop stop-color="#C6BDBD" offset="100%"></stop>
        </linearGradient>
        <linearGradient x1="112.953817%" y1="-20.5564011%" x2="39.0673032%" y2="54.0632181%" id="linearGradient-2">
            <stop stop-color="#806969" offset="0%"></stop>
            <stop stop-color="#C6BDBD" offset="100%"></stop>
        </linearGradient>
    </defs>
    <g id="Page-1" stroke="none" stroke-width="1" fill="none" fill-rule="evenodd">
        <g id="Group" transform="translate(-0, 0)" stroke="#000000">
            <rect id="Rectangle" fill="url(#linearGradient-1)" x="5.62" y="5.62" width="25.88" height="25.88" rx="2"></rect>
            <path d="M24.88,0.5 C25.2942136,0.5 25.6692136,0.667893219 25.9406602,0.939339828 C26.2121068,1.21078644 26.38,1.58578644 26.38,2 L26.38,24.88 C26.38,25.2942136 26.2121068,25.6692136 25.9406602,25.9406602 C25.6692136,26.2121068 25.2942136,26.38 24.88,26.38 L2,26.38 C1.58578644,26.38 1.21078644,26.2121068 0.939339828,25.9406602 C0.667893219,25.6692136 0.5,25.2942136 0.5,24.88 L0.5,10.9070305 L6.76257885,5.52225832 L12.077626,0.5 Z" id="Rectangle" fill="url(#linearGradient-2)"></path>
            <polygon id="Path" fill="#D3E426" stroke-linejoin="round" points="0.878764919 11 11.8787649 1 11.8787649 11"></polygon>
        </g>
    </g>
</svg>